<?xml version="1.0" encoding="iso-8859-1"?>
<!-- Generator: Adobe Illustrator 19.0.0, SVG Export Plug-In . SVG Version: 6.00 Build 0)  -->
<svg version="1.1" id="Layer_1" xmlns="http://www.w3.org/2000/svg" xmlns:xlink="http://www.w3.org/1999/xlink" x="0px" y="0px"
	 viewBox="0 0 512 512" style="enable-background:new 0 0 512 512;" xml:space="preserve">
<circle style="fill:#31BAFD;" cx="256" cy="256" r="256"/>
<path style="fill:#2B9ED8;" d="M506.561,308.686l-101.45-101.45l-93.618-37.104l-35.171,35.171l-53.598-53.6l-11.562,199.668
	l-5.677,40.202L318.271,504.36C412.796,480.732,486.5,404.571,506.561,308.686z"/>
<g>
	<polygon style="fill:#324A5E;" points="261.015,287.28 222.723,325.573 222.723,151.704 188.245,151.704 188.245,325.573 
		149.952,287.28 125.573,311.661 205.484,391.571 285.396,311.661 	"/>
	<polygon style="fill:#324A5E;" points="405.111,207.236 325.201,127.324 245.289,207.234 269.667,231.615 307.96,193.322 
		307.96,367.192 342.438,367.192 342.438,193.322 380.731,231.615 	"/>
</g>
<g>
	<polygon style="fill:#2B3B4E;" points="285.396,311.661 261.015,287.28 222.723,325.573 222.723,151.704 205.433,151.704 
		205.433,391.52 205.484,391.571 	"/>
	<polygon style="fill:#2B3B4E;" points="325.201,127.324 324.382,128.143 324.382,367.192 342.438,367.192 342.438,193.322 
		380.731,231.615 405.111,207.236 	"/>
</g>
<g>
</g>
<g>
</g>
<g>
</g>
<g>
</g>
<g>
</g>
<g>
</g>
<g>
</g>
<g>
</g>
<g>
</g>
<g>
</g>
<g>
</g>
<g>
</g>
<g>
</g>
<g>
</g>
<g>
</g>
</svg>
